# xmcd
#
# Track frame offsets: 
#        150
#        12309
#        22441
#        39696
#        49177
#        56911
#        67678
#        78846
#        103767
#        124157
#
# Disc length: 1781 seconds
#
# Revision: 2
# Processed by: cddbd v1.5.2PL0 Copyright (c) Steve Scherf et al.
# Submitted via: ExactAudioCopy v0.95b4
#
DISCID=8706f30a
DTITLE=Glen Meadmore - Cowboy Songs fro Little Hustlers
DYEAR=1998
DGENRE=Country
TTITLE0=Traveltown USA
TTITLE1=Hustler Boy
TTITLE2=Big Fat Bone
TTITLE3=Some Day We'll Meet Again
TTITLE4=Fancy Pants
TTITLE5=Chickenhawk Stomp
TTITLE6=Give My Back My Home
TTITLE7=After Dark
TTITLE8=Never Trust A Hustler
TTITLE9=Tan My Hide
EXTD=YEAR: 1998
EXTT0=
EXTT1=
EXTT2=
EXTT3=
EXTT4=
EXTT5=
EXTT6=
EXTT7=
EXTT8=
EXTT9=
PLAYORDER=
